<?xml version="1.0" standalone="no"?>
<!DOCTYPE svg PUBLIC "-//W3C//DTD SVG 20010904//EN"
 "http://www.w3.org/TR/2001/REC-SVG-20010904/DTD/svg10.dtd">
<svg version="1.0" xmlns="http://www.w3.org/2000/svg"
 width="250.000000pt" height="249.000000pt" viewBox="0 0 250.000000 249.000000"
 preserveAspectRatio="xMidYMid meet">

<g transform="translate(0.000000,249.000000) scale(0.100000,-0.100000)"
fill="#000000" stroke="none">
<path d="M753 2350 c-119 -22 -222 -79 -309 -173 -129 -139 -146 -296 -54
-492 15 -33 33 -82 40 -109 26 -112 88 -190 197 -245 80 -40 215 -81 267 -81
44 0 44 -1 194 -162 291 -316 340 -370 568 -631 126 -145 246 -276 268 -292
89 -65 193 -37 309 84 78 80 111 141 103 185 -7 39 -72 120 -286 356 -91 101
-191 213 -223 249 -33 36 -107 120 -165 185 -59 66 -156 176 -215 245 -97 113
-107 129 -102 156 3 17 8 72 11 122 8 111 -6 158 -70 237 -23 28 -61 87 -85
131 -64 119 -100 159 -184 199 -81 39 -172 52 -264 36z m145 -263 c2 -12 -3
-17 -17 -17 -12 0 -21 6 -21 13 0 31 32 34 38 4z m-88 -2 c0 -8 -9 -15 -20
-15 -11 0 -20 7 -20 15 0 8 9 15 20 15 11 0 20 -7 20 -15z m158 -28 c2 -12 -3
-17 -17 -17 -12 0 -21 6 -21 13 0 31 32 34 38 4z m-253 -7 c0 -8 -8 -16 -17
-18 -13 -2 -18 3 -18 18 0 15 5 20 18 18 9 -2 17 -10 17 -18z m-75 -54 c0 -8
-5 -18 -11 -22 -14 -8 -33 11 -25 25 10 16 36 13 36 -3z m378 -3 c-2 -10 -10
-18 -18 -18 -8 0 -16 8 -18 18 -2 12 3 17 18 17 15 0 20 -5 18 -17z m-428 -77
c0 -8 -5 -18 -11 -22 -14 -8 -33 11 -25 25 10 16 36 13 36 -3z m426 3 c9 -16
-12 -33 -31 -25 -14 5 -15 9 -5 21 15 18 26 19 36 4z m-436 -95 c0 -8 -9 -14
-20 -14 -22 0 -26 10 -8 28 13 13 28 7 28 -14z m367 -1 c-15 -16 -17 -16 -17
-1 0 9 6 18 13 21 20 7 22 -2 4 -20z m-327 -67 c0 -8 -5 -18 -11 -22 -14 -8
-33 11 -25 25 10 16 36 13 36 -3z m75 -26 c3 -5 -3 -10 -15 -10 -12 0 -18 5
-15 10 3 6 10 10 15 10 5 0 12 -4 15 -10z m602 -407 c-7 -6 -66 58 -66 72 0 6
16 -7 35 -28 20 -21 33 -41 31 -44z m202 -195 c2 22 21 3 21 -21 0 -18 2 -19
10 -7 8 12 10 11 10 -7 0 -14 6 -23 15 -23 9 0 15 -9 15 -22 0 -17 3 -19 9
-10 6 10 10 8 14 -10 4 -14 18 -30 32 -36 15 -7 25 -20 25 -32 0 -11 7 -20 15
-20 8 0 15 -8 16 -17 0 -15 2 -15 9 2 l9 20 0 -20 c1 -11 6 -27 12 -35 9 -13
10 -12 5 3 -3 11 -2 16 4 12 6 -3 10 -15 10 -26 0 -11 7 -22 15 -25 8 -4 15
-14 16 -23 0 -12 2 -11 8 4 7 17 9 15 16 -14 4 -21 10 -29 15 -21 5 8 10 2 14
-16 6 -21 10 -24 16 -14 6 10 11 2 16 -24 4 -23 10 -33 14 -26 5 8 10 2 14
-16 5 -19 10 -24 15 -15 6 8 10 2 14 -19 4 -17 11 -29 16 -26 5 4 12 -3 16
-14 4 -11 11 -18 16 -15 5 4 9 -3 9 -14 0 -12 6 -21 14 -21 7 0 16 -15 20 -32
4 -22 9 -29 15 -20 5 8 11 1 18 -23 11 -34 10 -36 -49 -95 -32 -33 -65 -60
-71 -60 -7 0 -6 4 3 11 12 9 11 10 -8 6 -12 -3 -20 -1 -17 3 3 5 -4 12 -16 15
-17 6 -19 9 -8 17 10 7 8 8 -9 5 -12 -3 -20 -1 -16 4 3 5 -1 9 -8 9 -10 0 -9
3 2 10 11 7 9 11 -13 19 -15 6 -27 13 -27 16 0 4 6 3 13 0 6 -4 4 0 -6 8 -13
11 -15 16 -5 20 7 2 1 8 -14 12 -16 4 -28 14 -28 21 0 8 -7 17 -15 20 -8 4
-13 10 -10 14 3 5 -4 12 -16 15 -15 5 -18 9 -9 15 8 5 3 10 -14 14 -14 3 -26
13 -26 21 0 7 -9 17 -21 20 -11 4 -18 10 -14 13 3 3 -5 12 -17 19 -15 8 -18
13 -8 13 8 1 2 7 -15 15 -16 7 -24 14 -17 14 15 1 -35 51 -51 51 -6 0 -7 3 -3
7 3 4 -4 13 -16 21 l-23 13 25 -5 c22 -4 23 -3 6 7 -10 7 -30 24 -45 38 -14
14 -35 31 -46 37 -17 10 -18 11 -3 12 17 0 17 1 1 20 -10 11 -23 20 -30 20 -7
0 -10 7 -7 15 4 8 1 15 -6 15 -6 0 -8 5 -5 10 3 6 0 10 -7 11 -10 0 -10 2 1 6
10 4 8 9 -10 19 -13 7 -18 13 -11 14 7 0 11 4 7 10 -3 5 17 32 45 60 47 46 61
55 83 51 4 0 8 5 8 12 1 6 5 -1 9 -18 4 -16 8 -24 9 -17z"/>
</g>
</svg>
